<svg width="31" height="30" viewBox="0 0 31 30" fill="none" xmlns="http://www.w3.org/2000/svg">
<path d="M29.9685 15C29.9685 14.57 30.1985 14 30.4185 13.44C30.7985 12.5 31.2285 11.43 30.8585 10.35C30.4885 9.25 29.4685 8.62 28.5785 8.06C28.0685 7.75 27.5385 7.42 27.2885 7.1C27.0385 6.77 26.8785 6.21 26.7185 5.62C26.4385 4.64 26.1285 3.52 25.1685 2.85C24.2285 2.2 23.0485 2.26 21.9985 2.31C21.3785 2.34 20.7385 2.37 20.3085 2.23C19.9085 2.11 19.4485 1.75 18.9685 1.38C18.1395 0.73 17.1995 0 15.9995 0C14.7995 0 13.8595 0.73 13.0295 1.38C12.5495 1.75 12.0895 2.11 11.6895 2.23C11.2595 2.37 10.6195 2.34 9.99952 2.31C8.94952 2.26 7.76952 2.2 6.82952 2.85C5.86952 3.52 5.55952 4.64 5.27952 5.62C5.11952 6.21 4.95952 6.77 4.70952 7.1C4.45952 7.42 3.92952 7.75 3.42952 8.06C2.52952 8.62 1.50952 9.25 1.13952 10.35C0.769517 11.43 1.19952 12.5 1.57952 13.44C1.79952 14 2.02952 14.57 2.02952 15C2.02952 15.43 1.79952 16 1.57952 16.56C1.19952 17.5 0.769517 18.57 1.13952 19.65C1.50952 20.75 2.52952 21.38 3.41952 21.94C3.92952 22.25 4.45952 22.58 4.70952 22.9C4.95952 23.23 5.11952 23.79 5.27952 24.38C5.55952 25.36 5.86952 26.48 6.82952 27.15C7.76952 27.8 8.94952 27.74 9.99952 27.69C10.6195 27.66 11.2595 27.63 11.6895 27.77C12.0895 27.89 12.5495 28.25 13.0295 28.62C13.8595 29.27 14.7995 30 15.9995 30C17.1995 30 18.1395 29.27 18.9695 28.62C19.4495 28.25 19.9095 27.89 20.3095 27.77C20.7395 27.63 21.3795 27.66 21.9995 27.69C23.0495 27.74 24.2295 27.8 25.1695 27.15C26.1295 26.48 26.4395 25.36 26.7195 24.38C26.8795 23.79 27.0395 23.23 27.2895 22.9C27.5395 22.58 28.0695 22.25 28.5695 21.94C29.4695 21.38 30.4895 20.75 30.8595 19.65C31.2295 18.57 30.7995 17.5 30.4195 16.56C30.1985 16 29.9685 15.43 29.9685 15ZM11.9995 18C11.9995 18.44 11.7095 18.83 11.2895 18.96C11.1895 18.99 11.0995 19 10.9995 19C10.6695 19 10.3595 18.84 10.1695 18.55L7.99952 15.3V18C7.99952 18.55 7.54952 19 6.99952 19C6.44952 19 5.99952 18.55 5.99952 18V12C5.99952 11.56 6.28952 11.17 6.70952 11.04C7.12952 10.91 7.58952 11.08 7.82952 11.45L9.99952 14.7V12C9.99952 11.45 10.4495 11 10.9995 11C11.5495 11 11.9995 11.45 11.9995 12V18ZM16.9995 14C17.5495 14 17.9995 14.45 17.9995 15C17.9995 15.55 17.5495 16 16.9995 16H14.9995V17H16.9995C17.5495 17 17.9995 17.45 17.9995 18C17.9995 18.55 17.5495 19 16.9995 19H13.9995C13.4495 19 12.9995 18.55 12.9995 18V12C12.9995 11.45 13.4495 11 13.9995 11H16.9995C17.5495 11 17.9995 11.45 17.9995 12C17.9995 12.55 17.5495 13 16.9995 13H14.9995V14H16.9995ZM24.9885 18.16C24.9085 18.61 24.5485 18.95 24.0985 19H23.9985C23.5885 19 23.2085 18.74 23.0585 18.35L22.4985 16.85L21.9385 18.35C21.7785 18.78 21.3485 19.04 20.8985 19C20.4485 18.95 20.0885 18.61 20.0085 18.16L19.0085 12.16C18.9185 11.62 19.2885 11.1 19.8385 11.01C20.3785 10.92 20.8985 11.29 20.9885 11.84L21.3685 14.16L21.5585 13.65C21.7085 13.26 22.0785 13 22.4985 13C22.9185 13 23.2885 13.26 23.4385 13.65L23.6285 14.16L24.0085 11.84C24.0985 11.29 24.6185 10.92 25.1585 11.01C25.7085 11.1 26.0785 11.62 25.9885 12.16L24.9885 18.16Z" fill="#3E4A59"/>
</svg>
